<svg width="9" height="6" viewBox="0 0 9 6" fill="none" xmlns="http://www.w3.org/2000/svg">
<path d="M4.66491 0.0203857C2.73397 0.0203857 1.08139 1.2207 0.414551 2.91969C1.08139 4.61289 2.73397 5.819 4.66491 5.819C6.59585 5.819 8.24842 4.61289 8.91526 2.91969C8.24842 1.2207 6.59585 0.0203857 4.66491 0.0203857ZM4.66491 4.85067C3.59796 4.85067 2.734 3.98664 2.734 2.91969C2.734 1.85275 3.59796 0.983046 4.66491 0.983046C5.73185 0.983046 6.59582 1.85275 6.59582 2.91969C6.59582 3.98664 5.73185 4.85067 4.66491 4.85067ZM4.66491 1.75997C4.02126 1.75997 3.50519 2.27605 3.50519 2.91969C3.50519 3.55754 4.02126 4.07941 4.66491 4.07941C5.30855 4.07941 5.82463 3.55754 5.82463 2.91969C5.82463 2.27605 5.30855 1.75997 4.66491 1.75997Z" fill="#0086FD"/>
</svg>
