<svg width="17" height="19" viewBox="0 0 17 19" fill="none" xmlns="http://www.w3.org/2000/svg">
<path id="Vector" d="M15.0076 9.82327C16.0409 8.51858 16.9646 6.70901 16.1476 5.2931C15.4645 4.10978 13.7812 3.69559 11.6595 4.00651C10.8674 2.01324 9.66767 0.762939 8.30152 0.762939C6.93478 0.762939 5.73389 2.01324 4.94238 4.00651C2.82067 3.69559 1.13733 4.10978 0.454838 5.2931C-0.363926 6.71046 0.556892 8.51383 1.59426 9.82327C0.56153 11.128 -0.362766 12.9375 0.454838 14.3534C1.27592 15.7759 3.31761 15.8712 4.94006 15.6349C5.73157 17.6311 6.93305 18.8836 8.30152 18.8836C9.66941 18.8836 10.8703 17.6311 11.6618 15.6349C13.2825 15.8712 15.3265 15.7759 16.1476 14.3534C16.9687 12.9309 16.0456 11.1327 15.0076 9.82327ZM15.5196 5.65552C16.1383 6.72681 15.2923 8.26269 14.5286 9.2575C13.9099 8.57976 13.2303 7.96 12.4991 7.40594C12.3872 6.49324 12.1912 5.59272 11.9146 4.71574C13.1608 4.54868 14.8905 4.56318 15.5196 5.65552ZM12.6 8.41455C13.1219 8.84678 13.6101 9.31769 14.0613 9.82327C13.6101 10.3288 13.1219 10.7997 12.6 11.2319C12.6667 10.294 12.6667 9.35248 12.6 8.41455ZM11.6693 6.81048C10.8941 6.27748 10.0782 5.80646 9.22871 5.40183C9.8654 5.16716 10.5189 4.97986 11.1834 4.84151C11.3933 5.48521 11.5557 6.14324 11.6693 6.81048ZM8.30152 1.48777C9.32091 1.48777 10.2585 2.51806 10.9242 4.13953C10.026 4.33946 9.14811 4.62128 8.30152 4.98143C7.45434 4.62139 6.57643 4.33958 5.67822 4.13953C6.34448 2.51806 7.28154 1.48777 8.30152 1.48777ZM5.41845 4.84081C6.08297 4.97975 6.73647 5.16722 7.37374 5.40183C6.52424 5.80675 5.7078 6.27806 4.93252 6.81124C5.04675 6.14347 5.20912 5.48492 5.41845 4.84081ZM1.08224 5.65552C1.71313 4.56283 3.4417 4.54903 4.68782 4.71574C4.41123 5.59272 4.21582 6.49324 4.1039 7.40594C3.37212 7.96 2.6931 8.57976 2.07439 9.2575C1.31245 8.26489 0.462952 6.72826 1.08224 5.65552ZM4.00243 11.2319C3.48055 10.7997 2.99173 10.3288 2.54059 9.82327C2.99173 9.31769 3.48055 8.84678 4.00243 8.41455C3.93516 9.35248 3.93516 10.294 4.00243 11.2319ZM1.08224 13.991C0.463532 12.9197 1.31013 11.3838 2.07381 10.389C2.69194 11.0667 3.37154 11.6865 4.10332 12.2405C4.21524 13.1542 4.41123 14.0555 4.68898 14.9333C2.95346 15.1663 1.59194 14.8735 1.08224 13.991ZM4.93252 12.836C5.7078 13.3695 6.52424 13.8405 7.37432 14.2447C6.73705 14.4798 6.08413 14.6679 5.41961 14.8075C5.2097 14.163 5.04675 13.5041 4.93252 12.836ZM8.30152 18.1588C7.2798 18.1588 6.34217 17.1259 5.67591 15.5012C6.57469 15.303 7.45318 15.0225 8.30094 14.6633C9.14811 15.0227 10.0272 15.3032 10.926 15.5012C10.2603 17.1259 9.32207 18.1588 8.30152 18.1588ZM11.1828 14.8075C10.5183 14.668 9.8654 14.4798 9.22814 14.2447C10.0782 13.8406 10.8947 13.3695 11.6693 12.836C11.5551 13.5041 11.3928 14.163 11.1828 14.8075ZM8.30152 13.8721C7.05714 13.334 5.87944 12.6548 4.79046 11.848C4.63911 10.5023 4.63911 9.14385 4.79046 7.7981C5.88002 6.99198 7.05772 6.31198 8.30094 5.77108C9.54416 6.31186 10.7219 6.99187 11.812 7.7981C11.9628 9.14385 11.9628 10.5023 11.812 11.848C10.723 12.6548 9.54532 13.334 8.30152 13.8721ZM15.5196 13.991C15.0105 14.8731 13.649 15.1663 11.9135 14.9333C12.1906 14.0555 12.3861 13.1542 12.4986 12.2405C13.2298 11.6865 13.9093 11.0667 14.5281 10.389C15.2888 11.3816 16.1395 12.9183 15.5196 13.991Z" fill="#0086FD"/>
</svg>
