<svg width="11" height="12" viewBox="0 0 11 12" fill="none" xmlns="http://www.w3.org/2000/svg">
<path id="Vector" d="M2.06665 2.1076C2.10144 2.62367 2.18839 3.12806 2.32756 3.60935L1.63175 4.30529C1.39401 3.60946 1.24324 2.87301 1.19105 2.1076H2.06665ZM7.78407 9.07754C8.27695 9.21671 8.78142 9.3038 9.29169 9.33859V10.2024C8.52628 10.1502 7.78983 9.99949 7.08819 9.76754L7.78407 9.07754ZM2.62329 0.947876H0.593777C0.274854 0.947876 0.013916 1.20881 0.013916 1.52774C0.013916 6.97263 4.42666 11.3854 9.87155 11.3854C10.1905 11.3854 10.4514 11.1244 10.4514 10.8055V8.78166C10.4514 8.46274 10.1905 8.2018 9.87155 8.2018C9.15253 8.2018 8.45093 8.08593 7.80148 7.87138C7.7435 7.84819 7.67968 7.8425 7.62169 7.8425C7.47093 7.8425 7.32598 7.90051 7.21001 8.01069L5.93428 9.28621C4.29327 8.44541 2.94801 7.10602 2.11301 5.46502L3.38868 4.18921C3.55104 4.02685 3.59743 3.80069 3.53364 3.59774C3.31909 2.94829 3.20315 2.25256 3.20315 1.52774C3.20315 1.20881 2.94221 0.947876 2.62329 0.947876Z" fill="#F0F0F0"/>
</svg>
