<svg width="39" height="40" viewBox="0 0 39 40" fill="none" xmlns="http://www.w3.org/2000/svg">
<path id="Vector" d="M15.634 28.9757L27.2312 20.2777L15.634 11.5798V28.9757ZM19.4999 0.950928C8.83046 0.950928 0.171387 9.6083 0.171387 20.2777C0.171387 30.9472 8.83046 39.6046 19.4999 39.6046C30.1693 39.6046 38.8284 30.9472 38.8284 20.2777C38.8284 9.6083 30.1693 0.950928 19.4999 0.950928ZM19.4999 35.7426C10.9759 35.7426 4.03675 28.8017 4.03675 20.2777C4.03675 11.7538 10.9759 4.81289 19.4999 4.81289C28.0239 4.81289 34.9631 11.7538 34.9631 20.2777C34.9631 28.8017 28.0239 35.7426 19.4999 35.7426Z" fill="white"/>
</svg>
