<svg width="15" height="15" viewBox="0 0 15 15" fill="none" xmlns="http://www.w3.org/2000/svg">
<g id="Clip path group">
<mask id="mask0_202_462" style="mask-type:luminance" maskUnits="userSpaceOnUse" x="0" y="0" width="15" height="15">
<g id="clip28_10_204">
<path id="Vector" d="M14.7013 0.916748H0.784668V14.8334H14.7013V0.916748Z" fill="white"/>
</g>
</mask>
<g mask="url(#mask0_202_462)">
<g id="Group">
<path id="Vector_2" d="M9.77268 9.03472H9.31457L9.15226 8.87816C9.72052 8.21712 10.0626 7.35892 10.0626 6.42535C10.0626 4.34365 8.37521 2.65625 6.29351 2.65625C4.21181 2.65625 2.52441 4.34365 2.52441 6.42535C2.52441 8.50705 4.21181 10.1944 6.29351 10.1944C7.22709 10.1944 8.08527 9.85233 8.74631 9.28406L8.90289 9.44642V9.90451L11.8022 12.798L12.6662 11.934L9.77268 9.03472ZM6.29351 9.03472C4.84966 9.03472 3.68414 7.8692 3.68414 6.42535C3.68414 4.98149 4.84966 3.81597 6.29351 3.81597C7.73737 3.81597 8.90289 4.98149 8.90289 6.42535C8.90289 7.8692 7.73737 9.03472 6.29351 9.03472Z" fill="white"/>
</g>
</g>
</g>
</svg>
