<svg width="14" height="11" viewBox="0 0 14 11" fill="none" xmlns="http://www.w3.org/2000/svg">
<path id="Vector" d="M1.0415 6.07831V5.25495C1.0415 3.57915 1.0415 2.73834 1.56628 2.19907C2.09163 1.6598 2.91852 1.63657 4.57171 1.58439C5.35452 1.56699 6.15472 1.54956 6.84011 1.54956C7.52493 1.54956 8.32513 1.56699 9.10852 1.58439C10.7617 1.63657 11.5886 1.6598 12.1134 2.19907C12.6387 2.73834 12.6387 3.57915 12.6387 5.25495V6.07831C12.6387 7.75411 12.6387 8.59492 12.114 9.13419C11.5886 9.67346 10.7623 9.69654 9.10852 9.74293C8.32571 9.76612 7.52551 9.7837 6.84011 9.7837C6.08398 9.7837 5.32784 9.76612 4.57171 9.74293C2.91852 9.69654 2.09163 9.67346 1.56628 9.13419C1.0415 8.59492 1.0415 7.75411 1.0415 6.07831Z" stroke="#0086FD" stroke-width="1.5"/>
</svg>
