<svg width="15" height="13" viewBox="0 0 15 13" fill="none" xmlns="http://www.w3.org/2000/svg">
<path id="Vector" d="M13.8019 1.45348C13.8019 1.45348 12.6317 2.14367 11.9811 2.34082C11.632 1.94072 11.1676 1.6565 10.6515 1.52313C10.1354 1.39556 9.5915 1.43044 9.09456 1.616C8.59761 1.80735 8.17026 2.14362 7.87163 2.58432C7.573 3.02501 7.41644 3.54693 7.42339 4.08041V4.66027C6.40458 4.68926 5.39446 4.46318 4.48408 4.00509C3.5737 3.547 2.7903 2.86834 2.20464 2.03334C2.20464 2.03334 -0.1148 7.25209 5.10395 9.57153C3.91002 10.3833 2.48704 10.7892 1.04492 10.7313C6.26367 13.6306 12.6421 10.7313 12.6421 4.06285C12.6421 3.90049 12.6259 3.73837 12.5958 3.5818C13.1872 2.99614 13.8019 1.45348 13.8019 1.45348Z" stroke="white" stroke-width="1.5" stroke-linecap="round" stroke-linejoin="round"/>
</svg>
